<?xml version="1.0" encoding="iso-8859-1"?>
<!-- Uploaded to: SVG Repo, www.svgrepo.com, Generator: SVG Repo Mixer Tools -->
<svg height="800px" width="800px" version="1.1" id="Capa_1" xmlns="http://www.w3.org/2000/svg" xmlns:xlink="http://www.w3.org/1999/xlink" 
	 viewBox="0 0 369.632 369.632" xml:space="preserve">
<g>
	<path style="fill:#FFFFFF;" d="M144.321,226.328c5.227,0,10.098,1.535,14.199,4.168c-4.691-7.31-12.886-12.167-22.198-12.167
		c-14.537,0-26.364,11.827-26.364,26.364c0,9.311,4.857,17.505,12.166,22.197c-2.633-4.102-4.167-8.972-4.167-14.197
		C117.956,238.155,129.784,226.328,144.321,226.328z"/>
	<path style="fill:#FFA6BB;" d="M158.52,230.496c-4.102-2.633-8.973-4.168-14.199-4.168c-14.537,0-26.364,11.827-26.364,26.364
		c0,5.225,1.534,10.096,4.167,14.197c4.102,2.633,8.973,4.167,14.198,4.167c14.537,0,26.365-11.827,26.365-26.364
		C162.687,239.468,161.153,234.597,158.52,230.496z M142.503,252.192H130.14c-4.142,0-7.5-3.358-7.5-7.5c0-4.142,3.358-7.5,7.5-7.5
		h12.363c4.142,0,7.5,3.358,7.5,7.5C150.003,248.834,146.645,252.192,142.503,252.192z"/>
	<path style="fill:#FFFFFF;" d="M241.309,226.328c5.227,0,10.098,1.535,14.199,4.168c-4.691-7.31-12.887-12.167-22.199-12.167
		c-14.537,0-26.363,11.827-26.363,26.364c0,9.311,4.857,17.505,12.166,22.197c-2.633-4.102-4.168-8.972-4.168-14.197
		C214.943,238.155,226.771,226.328,241.309,226.328z"/>
	<path style="fill:#FFA6BB;" d="M255.508,230.496c-4.102-2.633-8.973-4.168-14.199-4.168c-14.537,0-26.365,11.827-26.365,26.364
		c0,5.225,1.535,10.096,4.168,14.197c4.102,2.633,8.973,4.167,14.197,4.167c14.537,0,26.365-11.827,26.365-26.364
		C259.674,239.468,258.141,234.597,255.508,230.496z M239.49,252.192h-12.363c-4.143,0-7.5-3.358-7.5-7.5c0-4.142,3.358-7.5,7.5-7.5
		h12.363c4.143,0,7.5,3.358,7.5,7.5C246.99,248.834,243.633,252.192,239.49,252.192z"/>
	<path style="fill:#7F3960;" d="M142.503,237.192H130.14c-4.142,0-7.5,3.358-7.5,7.5c0,4.142,3.358,7.5,7.5,7.5h12.363
		c4.142,0,7.5-3.358,7.5-7.5C150.003,240.55,146.645,237.192,142.503,237.192z"/>
	<path style="fill:#FFFFFF;" d="M119.046,282.254c-4.69-2.169-8.913-5.178-12.46-8.851c7.645,46.341,39.815,81.229,78.229,81.229
		c1.794,0,3.569-0.101,5.333-0.25C156.57,351.532,128.594,322.025,119.046,282.254z"/>
	<path style="fill:#FFFFFF;" d="M190.086,150.003c-1.726-0.156-3.48-0.244-5.27-0.244c-32.875,0-61.177,25.554-73.447,61.971
		c3.901-2.961,8.342-5.248,13.146-6.683C137.068,174.157,161.551,152.452,190.086,150.003z"/>
	<path style="fill:#FFFFFF;" d="M318.01,180.386c0.139-2.171,0.217-4.352,0.217-6.543c0-41.889-25.701-78.658-64.117-99.031
		c5.434,6.431,9.785,13.405,12.941,20.745C296.381,115.567,315.852,146.003,318.01,180.386z"/>
	<path style="fill:#FFFFFF;" d="M193.744,68.214c7.975,0,15.789,0.613,23.383,1.785c11.447,4.96,21.272,11.479,29.1,19.068
		c-8.631-12.023-21.676-22.284-38.027-29.37c-7.594-1.171-15.408-1.785-23.383-1.785c-73.562,0-133.41,52.006-133.41,115.93
		c0,27.69,11.184,53.893,31.297,74.602c-14.465-18.796-22.369-41.022-22.369-64.3C60.333,120.22,120.181,68.214,193.744,68.214z"/>
	<path style="fill:#FFFFFF;" d="M195.814,25c25.512,0,49.031,8.396,66.812,22.19C244.24,27.552,216.016,15,184.814,15
		c-43.269,0-80.818,24.135-94.336,57.84c8.555-6.229,17.914-11.625,27.912-16.059C136.785,37.378,164.831,25,195.814,25z"/>
	<path style="fill:#FFA6BB;" d="M195.814,25c-30.984,0-59.03,12.378-77.424,31.781c19.997-8.867,42.562-13.868,66.426-13.868
		c44.297,0,75.309,16.07,94.336,29.927c-3.771-9.4-9.414-18.053-16.525-25.648v0C244.846,33.396,221.326,25,195.814,25z"/>
	<path style="fill:none;" d="M184.816,42.913c44.297,0,75.309,16.07,94.336,29.927c-3.771-9.4-9.414-18.053-16.525-25.648
		C244.24,27.553,216.016,15,184.814,15c-43.269,0-80.818,24.135-94.336,57.84c8.554-6.229,17.914-11.625,27.912-16.059
		C138.387,47.914,160.952,42.913,184.816,42.913z"/>
	<path style="fill:none;" d="M267.051,95.556c29.33,20.011,48.801,50.447,50.959,84.829c0.139-2.171,0.217-4.352,0.217-6.543
		c0-41.889-25.701-78.658-64.117-99.031C259.543,81.243,263.894,88.216,267.051,95.556z"/>
	<path style="fill:#FFA6BB;" d="M267.051,95.556c3.873,9.004,5.941,18.56,5.941,28.364c0,17.157-6.531,34.195-18.48,48.605
		c15.668,20.951,25.262,48.95,25.262,79.672c0,1.033-0.012,2.062-0.033,3.088c22.875-20.077,36.453-46.525,38.27-74.899
		C315.852,146.003,296.381,115.567,267.051,95.556z"/>
	<path style="fill:#FFA6BB;" d="M184.816,134.759c22.622,0,43.415,9.838,59.745,26.23c8.803-11.305,13.432-23.982,13.432-37.068
		c0-12.34-4.176-24.278-11.768-34.854c-7.826-7.588-17.652-14.106-29.098-19.067c-7.594-1.171-15.408-1.785-23.383-1.785
		c-73.563,0-133.411,52.006-133.411,115.93c0,23.277,7.903,45.503,22.367,64.298c2.285,2.353,4.679,4.639,7.191,6.844
		c-0.021-1.027-0.033-2.057-0.033-3.089C89.859,187.441,132.456,134.759,184.816,134.759z"/>
	<path style="fill:none;" d="M257.137,208.733c0.227,0.553,0.43,1.074,0.613,1.564C257.566,209.807,257.361,209.285,257.137,208.733
		z"/>
	<path style="fill:none;" d="M257.769,210.35c0.186,0.495,0.352,0.956,0.494,1.38C258.121,211.307,257.955,210.845,257.769,210.35z"
		/>
	<path style="fill:none;" d="M184.816,42.913c44.297,0,75.309,16.07,94.336,29.927c-3.771-9.4-9.414-18.053-16.525-25.648
		C244.24,27.553,216.016,15,184.814,15c-43.269,0-80.818,24.135-94.336,57.84c8.554-6.229,17.914-11.625,27.912-16.059
		C138.387,47.914,160.952,42.913,184.816,42.913z"/>
	<path style="fill:none;" d="M263.045,273.403c-0.248,1.5-0.522,2.987-0.822,4.461C262.521,276.389,262.797,274.902,263.045,273.403
		z"/>
	<path style="fill:none;" d="M261.25,282.254c0.346-1.437,0.668-2.886,0.965-4.348C261.916,279.368,261.596,280.817,261.25,282.254
		L261.25,282.254z"/>
	<path style="fill:none;" d="M257.133,208.722c-0.461-1.133-1.01-2.393-1.643-3.756l0,0
		C256.123,206.329,256.67,207.589,257.133,208.722z"/>
	<path style="fill:none;" d="M184.816,42.913c44.297,0,75.309,16.07,94.336,29.927c-3.771-9.4-9.414-18.053-16.525-25.648
		C244.24,27.553,216.016,15,184.814,15c-43.269,0-80.818,24.135-94.336,57.84c8.554-6.229,17.914-11.625,27.912-16.059
		C138.387,47.914,160.952,42.913,184.816,42.913z"/>
	<path style="fill:#7F3960;" d="M298.92,90.217c-2.814-24.407-15.656-46.927-36.357-63.642C241.338,9.438,213.727,0,184.814,0
		c-28.91,0-56.521,9.438-77.745,26.576C86.367,43.291,73.526,65.811,70.71,90.217c-21.41,22.698-34.305,51.857-34.305,83.625
		c0,39.945,20.17,77.027,55.392,102.028c8.881,53.446,47.214,93.762,93.018,93.762c45.805,0,84.137-40.317,93.018-93.763
		c35.223-25.002,55.393-62.083,55.393-102.027C333.227,142.074,320.33,112.915,298.92,90.217z M184.814,15
		c31.202,0,59.426,12.553,77.813,32.191c7.111,7.596,12.754,16.249,16.525,25.648c-19.027-13.856-50.039-29.927-94.336-29.927
		c-23.864,0-46.429,5.001-66.426,13.868c-9.998,4.434-19.358,9.83-27.912,16.059C103.996,39.135,141.545,15,184.814,15z
		 M89.892,255.286c-2.513-2.205-4.906-4.491-7.191-6.844c-20.111-20.708-31.295-46.91-31.295-74.6
		c0-63.924,59.848-115.93,133.41-115.93c7.975,0,15.79,0.613,23.383,1.785c16.35,7.086,29.397,17.346,38.025,29.369
		c7.592,10.576,11.768,22.514,11.768,34.854c0,13.086-4.629,25.764-13.432,37.068c-16.33-16.391-37.123-26.23-59.745-26.23
		c-52.359,0-94.957,52.682-94.957,117.438C89.859,253.229,89.871,254.259,89.892,255.286z M162.687,244.692
		c0,14.537-11.828,26.364-26.365,26.364c-5.226,0-10.097-1.535-14.198-4.167c-7.309-4.692-12.166-12.885-12.166-22.197
		c0-14.537,11.827-26.364,26.364-26.364c9.312,0,17.507,4.858,22.198,12.167C161.153,234.597,162.687,239.468,162.687,244.692z
		 M261.25,282.254c-9.547,39.771-37.522,69.279-71.102,72.128c-1.764,0.15-3.539,0.25-5.333,0.25
		c-38.414,0-70.584-34.888-78.229-81.229c3.547,3.673,7.77,6.683,12.46,8.851c5.261,2.433,11.108,3.802,17.275,3.802
		c22.809,0,41.365-18.556,41.365-41.364s-18.557-41.364-41.365-41.364c-4.103,0-8.066,0.601-11.808,1.719
		c-4.804,1.435-9.244,3.721-13.146,6.682c12.271-36.417,40.572-61.971,73.447-61.971c1.79,0,3.544,0.088,5.272,0.244
		c35.231,3.173,57.313,37.529,65.402,54.963c0.633,1.363,2.631,6.34,2.773,6.764c-6.941-5.269-15.588-8.402-24.955-8.402
		c-22.807,0-41.363,18.556-41.363,41.364s18.557,41.364,41.363,41.364c11.666,0,22.209-4.861,29.736-12.654
		C262.797,274.902,261.596,280.817,261.25,282.254z M259.674,244.692c0,14.537-11.826,26.364-26.365,26.364
		c-14.537,0-26.363-11.827-26.363-26.364c0-14.537,11.826-26.364,26.363-26.364C247.848,218.328,259.674,230.155,259.674,244.692z
		 M279.74,255.285c0.022-1.026,0.033-2.056,0.033-3.088c0-30.722-9.594-58.721-25.262-79.672
		c11.949-14.41,18.48-31.447,18.48-48.605c0-9.804-2.068-19.36-5.941-28.364c-3.156-7.34-7.508-14.313-12.941-20.745
		c38.416,20.373,64.117,57.142,64.117,99.031c0,2.191-0.078,4.372-0.217,6.543C316.193,208.759,302.615,235.207,279.74,255.285z"/>
	<path style="fill:#BA82AA;" d="M233.309,286.057c-22.807,0-41.363-18.556-41.363-41.364s18.557-41.364,41.363-41.364
		c9.367,0,18.014,3.134,24.955,8.402c-0.143-0.424-2.141-5.401-2.773-6.764c-8.09-17.435-30.172-51.79-65.402-54.963
		c-0.002,0-0.002,0-0.002,0c-28.535,2.449-53.018,24.154-65.572,55.044v0c3.742-1.118,7.705-1.719,11.808-1.719
		c22.809,0,41.365,18.556,41.365,41.364s-18.557,41.364-41.365,41.364c-6.167,0-12.015-1.37-17.275-3.802
		c9.548,39.77,37.523,69.277,71.102,72.127c33.58-2.849,61.555-32.357,71.102-72.128c0.346-1.436,1.547-7.351,1.795-8.851
		C255.518,281.196,244.975,286.057,233.309,286.057z M214.754,310.059c-6.092,10.79-17.564,17.492-29.938,17.492
		c-12.372,0-23.844-6.703-29.937-17.492c-2.037-3.607-0.764-8.182,2.842-10.219c3.609-2.037,8.182-0.764,10.219,2.842
		c3.438,6.087,9.905,9.869,16.877,9.869c6.973,0,13.44-3.781,16.878-9.868c2.035-3.607,6.609-4.881,10.217-2.843
		C215.518,301.877,216.791,306.452,214.754,310.059z"/>
	<path style="fill:#7F3960;" d="M211.91,299.84c-3.607-2.039-8.182-0.764-10.217,2.843c-3.438,6.087-9.904,9.868-16.878,9.868
		c-6.972,0-13.438-3.781-16.877-9.869c-2.037-3.605-6.609-4.879-10.219-2.842c-3.605,2.037-4.879,6.612-2.842,10.219
		c6.094,10.789,17.565,17.492,29.937,17.492c12.374,0,23.846-6.703,29.938-17.492C216.791,306.452,215.518,301.877,211.91,299.84z"
		/>
	<path style="fill:#7F3960;" d="M239.49,237.192h-12.361c-4.143,0-7.5,3.358-7.5,7.5c0,4.142,3.357,7.5,7.5,7.5h12.361
		c4.143,0,7.5-3.358,7.5-7.5C246.99,240.55,243.633,237.192,239.49,237.192z"/>
</g>
</svg>